<?xml version="1.0" standalone="no"?>
<svg xmlns="http://www.w3.org/2000/svg" 
  xmlns:xlink="http://www.w3.org/1999/xlink" style="isolation:isolate" viewBox="533 406 612 612" width="612" height="612">
  <g>
    <path d=" M 1145 712 C 1145 543.004 1007.995 406 839 406 C 670.004 406 533 543.004 533 712 C 533 880.995 670.004 1018 839 1018 C 1007.995 1018 1145 880.995 1145 712 Z  M 560.818 712 C 560.818 558.36 685.36 433.818 839 433.818 C 992.64 433.818 1117.182 558.36 1117.182 712 C 1117.182 865.64 992.64 990.182 839 990.182 C 685.36 990.182 560.818 865.64 560.818 712 Z " fill="rgb(240,247,229)"/>
    <path d=" M 943.55 537.75 L 734.45 537.75 C 696.017 537.75 664.75 569.017 664.75 607.45 L 664.75 816.55 C 664.75 854.983 696.017 886.25 734.45 886.25 L 943.55 886.25 C 981.983 886.25 1013.25 854.983 1013.25 816.55 L 1013.25 607.45 C 1013.25 569.017 981.983 537.75 943.55 537.75 Z  M 971.43 814.968 C 971.415 831.233 958.233 844.415 941.968 844.43 L 736.032 844.43 C 719.767 844.415 706.585 831.233 706.57 814.968 L 706.57 656.24 L 734.506 656.24 C 754.489 618.951 793.813 593.51 839 593.51 C 884.18 593.51 923.511 618.951 943.494 656.24 L 971.43 656.24 L 971.43 814.968 Z  M 978.4 610.935 C 978.4 616.692 973.702 621.39 967.945 621.39 L 947.035 621.39 C 941.278 621.39 936.58 616.692 936.58 610.935 L 936.58 590.025 C 936.58 584.268 941.278 579.57 947.035 579.57 L 967.945 579.57 C 973.702 579.57 978.4 584.268 978.4 590.025 L 978.4 610.935 Z " fill="rgb(240,247,229)"/>
    <path d=" M 839 607.45 C 781.351 607.45 734.45 654.351 734.45 712 C 734.45 769.649 781.351 816.55 839 816.55 C 896.649 816.55 943.55 769.649 943.55 712 C 943.55 654.351 896.649 607.45 839 607.45 Z  M 839 781.7 C 800.512 781.7 769.3 750.495 769.3 712 C 769.3 673.498 800.512 642.3 839 642.3 C 877.481 642.3 908.7 673.498 908.7 712 C 908.7 750.495 877.481 781.7 839 781.7 Z " fill="rgb(240,247,229)"/>
  </g>
</svg>